<svg id="Camada_1" data-name="Camada 1" xmlns="http://www.w3.org/2000/svg" viewBox="0 0 972.38 475.16">
	<defs>
		<style>.cls-1,.cls-2,.cls-3{fill:#1d1d1b;}.cls-1{stroke:#1d1d1b;stroke-miterlimit:10;stroke-width:4px;}.cls-2{font-size:14px;font-family:MyriadPro-Regular, Myriad Pro;}.cls-4{letter-spacing:0em;}.cls-5{letter-spacing:-0.01em;}.cls-6{letter-spacing:0em;}.cls-7{letter-spacing:0em;}.cls-8{letter-spacing:-0.01em;}.cls-9{letter-spacing:0.01em;}.cls-10{letter-spacing:-0.01em;}.cls-11{letter-spacing:0.01em;}.cls-12{letter-spacing:-0.04em;}.cls-13{letter-spacing:-0.02em;}.cls-14{letter-spacing:-0.01em;}.cls-15{letter-spacing:-0.01em;}.cls-16{letter-spacing:0em;}.cls-17{letter-spacing:0em;}.cls-18{letter-spacing:-0.01em;}.cls-19{letter-spacing:-0.01em;}.cls-20{letter-spacing:0.01em;}.cls-21{letter-spacing:0.02em;}.cls-22{letter-spacing:0em;}.cls-23{letter-spacing:-0.01em;}.cls-24{letter-spacing:0em;}.cls-25{letter-spacing:-0.03em;}
		</style
		></defs>

		<line class="cls-1" x1="67.87" y1="41.9" x2="62.97" y2="91.25"/>
		<text class="cls-2" transform="translate(48.85 64.21)">71</text>
		
		<circle id="oradea" class="cls-3" cx="69.55" cy="30.91" r="12.85"/><text class="cls-2" transform="translate(45.02 11.72)">O<tspan class="cls-4" x="9.65" y="0">r</tspan><tspan x="14.15" y="0">adea</tspan></text>

		<circle id="zerind" class="cls-3" cx="62.19" cy="104.1" r="12.85"/><text class="cls-2" transform="translate(82.41 105.6)"><tspan class="cls-5">Z</tspan><tspan x="7.57" y="0">e</tspan><tspan class="cls-6" x="14.59" y="0">r</tspan><tspan x="19.22" y="0">ind</tspan></text>

		<circle id="arad" class="cls-3" cx="49.65" cy="172.53" r="12.85"/>

		<circle id="timisoara" class="cls-3" cx="69.55" cy="252.06" r="12.85"/><text class="cls-2" transform="translate(7.63 162.82)"><tspan class="cls-7">A</tspan><tspan class="cls-4" x="8.53" y="0">r</tspan><tspan x="13.03" y="0">ad</tspan></text><line class="cls-1" x1="58.89" y1="116" x2="53.31" y2="161.98"/><text class="cls-2" transform="translate(36.3 138.71)">75</text><text class="cls-2" transform="translate(0.01 238.05)"><tspan class="cls-5">T</tspan><tspan x="6.79" y="0">imisoa</tspan><tspan class="cls-4" x="45" y="0">r</tspan><tspan x="49.5" y="0">a</tspan></text><line class="cls-1" x1="53.31" y1="184.85" x2="69.55" y2="239.21"/><text class="cls-2" transform="translate(31.68 216.08)">118</text>

		<circle id="lugoj" class="cls-3" cx="144.33" cy="323.27" r="12.85"/><text class="cls-2" transform="translate(87.45 332.21)"><tspan class="cls-8">L</tspan><tspan x="6.4" y="0">ugoj</tspan></text><line class="cls-1" x1="75.53" y1="262.07" x2="135.83" y2="313.63"/><text class="cls-2" transform="translate(61.7 291.64)">111</text>

		<circle id="mehadia" class="cls-3" cx="153.52" cy="382.21" r="12.85"/>

		<circle id="dobreta" class="cls-3" cx="148.68" cy="442.93" r="12.85"/><line class="cls-1" x1="148.68" y1="335.07" x2="153.52" y2="369.36"/><text class="cls-2" transform="translate(130.13 357.53)">70</text><line class="cls-1" x1="152" y1="395.06" x2="148.68" y2="430.08"/><text class="cls-2" transform="translate(125.29 414.46)">75</text><text class="cls-2" transform="translate(178.38 385.75)"><tspan class="cls-9">M</tspan><tspan x="11.34" y="0">ehadia</tspan></text><text class="cls-2" transform="translate(80.56 446.47)"><tspan class="cls-6">D</tspan><tspan x="9.38" y="0">ob</tspan><tspan class="cls-10" x="25.03" y="0">r</tspan><tspan x="29.47" y="0">eta</tspan></text>

		<circle id="sibiu" class="cls-3" cx="250.44" cy="212.03" r="12.85"/>

		<circle id="rimnicu" class="cls-3" cx="294.76" cy="304.49" r="12.85"/>

		<circle id="craiova" class="cls-3" cx="311.6" cy="442.93" r="12.85"/><line class="cls-1" x1="78.49" y1="34.34" x2="246.69" y2="203.19"/><line class="cls-1" x1="58.37" y1="177.41" x2="237.59" y2="212.03"/><text class="cls-2" transform="translate(182.34 125)">151</text><text class="cls-2" transform="translate(134.63 181.2)">140</text><text x="1.11" y="-20.98"/><text class="cls-2" transform="translate(257.32 198.26)">Sibiu</text><text class="cls-2" transform="translate(298.24 291.64)"><tspan class="cls-11">R</tspan><tspan x="7.67" y="0">imnicu</tspan><tspan class="cls-12" x="47.66" y="0"> </tspan><tspan class="cls-13" x="50.12" y="0">V</tspan><tspan x="57.71" y="0">il</tspan><tspan class="cls-14" x="64.29" y="0">c</tspan><tspan x="70.47" y="0">eia</tspan></text><line class="cls-1" x1="255.93" y1="224.88" x2="287.33" y2="294"/><text class="cls-2" transform="translate(249.95 267.01)">80</text><text class="cls-2" transform="translate(301.33 471.66)"><tspan class="cls-7">C</tspan><tspan class="cls-4" x="8.08" y="0">r</tspan><tspan x="12.59" y="0">ai</tspan><tspan class="cls-15" x="22.61" y="0">o</tspan><tspan class="cls-16" x="30.2" y="0">v</tspan><tspan x="36.88" y="0">a</tspan></text><line class="cls-1" x1="299.71" y1="313.71" x2="311.6" y2="430.08"/><text class="cls-2" transform="translate(274.65 368.9)">146</text><line class="cls-1" x1="157.08" y1="443.34" x2="298.75" y2="442.93"/><text class="cls-2" transform="translate(208.46 433.87)">120</text>

		<circle id="fagaras" class="cls-3" cx="368.3" cy="224.88" r="12.85"/><line class="cls-1" x1="263.29" y1="212.03" x2="355.45" y2="224.88"/><text class="cls-2" transform="translate(299.32 213.14)">99</text>

		<circle id="bucharest" class="cls-3" cx="542.18" cy="365.11" r="12.85"/><line class="cls-1" x1="376.16" y1="232.91" x2="531.8" y2="357.53"/><text class="cls-2" transform="translate(473.71 302.81)">211</text><text class="cls-2" transform="translate(542.18 390.09)">Bucha<tspan class="cls-10" x="36.09" y="0">r</tspan><tspan x="40.53" y="0">est</tspan></text>

		<circle id="pitest" class="cls-3" cx="395.04" cy="339.41" r="12.85"/><text class="cls-2" transform="translate(404.11 326.93)"><tspan class="cls-13">P</tspan><tspan class="cls-17" x="7.22" y="0">i</tspan><tspan class="cls-18" x="10.5" y="0">t</tspan><tspan x="15.05" y="0">est</tspan></text><line class="cls-1" x1="303.75" y1="302.81" x2="383.25" y2="337.37"/><text class="cls-2" transform="translate(333.55 336)">97</text><line class="cls-1" x1="391.01" y1="348.98" x2="317.46" y2="433.65"/><text class="cls-2" transform="translate(334.51 386.43)">138</text><line class="cls-1" x1="407.14" y1="343.73" x2="532.32" y2="368.64"/><text class="cls-2" transform="translate(454.13 372.43)">101</text>

		<circle id="giurgiu" class="cls-3" cx="513.25" cy="442.93" r="12.85"/><line class="cls-1" x1="537.62" y1="377.37" x2="514" y2="434.37"/><text class="cls-2" transform="translate(502.65 403.5)">90</text><text class="cls-2" transform="translate(531.81 452.87)">Giu<tspan class="cls-19" x="20.03" y="0">r</tspan><tspan class="cls-14" x="24.5" y="0">g</tspan><tspan x="32.24" y="0">iu</tspan></text>

		<circle id="urziceni" class="cls-3" cx="673.74" cy="340.61" r="12.85"/><text class="cls-2" transform="translate(647.66 367.47)">U<tspan class="cls-20" x="9.06" y="0">r</tspan><tspan x="13.76" y="0">zi</tspan><tspan class="cls-14" x="23.03" y="0">c</tspan><tspan x="29.22" y="0">eni</tspan></text><line class="cls-1" x1="661.27" y1="343.73" x2="552.76" y2="364.5"/><text class="cls-2" transform="translate(593.67 347.51)">85</text>

		<circle id="hirsorva" class="cls-3" cx="805.29" cy="336" r="12.85"/><line class="cls-1" x1="792.44" y1="336" x2="682.22" y2="339.52"/><text class="cls-2" transform="translate(726.17 328.69)">98</text>

		<circle id="eforie" class="cls-3" cx="888.95" cy="372.43" r="12.85"/><line class="cls-1" x1="878.38" y1="365.11" x2="815.67" y2="336.45"/><text class="cls-2" transform="translate(847.08 344.4)">86</text><text class="cls-2" transform="translate(784.16 317.38)"><tspan class="cls-11">H</tspan><tspan x="9.27" y="0">irso</tspan><tspan class="cls-21" x="30.35" y="0">r</tspan><tspan class="cls-22" x="35.28" y="0">v</tspan><tspan x="41.96" y="0">a</tspan></text><text class="cls-2" transform="translate(876.09 403.38)">E<tspan class="cls-23" x="6.89" y="0">f</tspan><tspan x="10.79" y="0">o</tspan><tspan class="cls-24" x="18.48" y="0">r</tspan><tspan x="23.11" y="0">ie</tspan></text>

		<circle id="vaslui" class="cls-3" cx="772.37" cy="185.2" r="12.85"/><text class="cls-2" transform="translate(788.97 182.29)"><tspan class="cls-25">V</tspan><tspan x="7.35" y="0">aslui</tspan></text><line class="cls-1" x1="765.49" y1="196.06" x2="678.48" y2="331.06"/><text class="cls-2" transform="translate(700.06 254.49)">142</text>

		<circle id="iasi" class="cls-3" cx="695.8" cy="116.95" r="12.85"/>

		<circle id="neamt" class="cls-3" cx="581.34" cy="82.81" r="12.85"/><text class="cls-2" transform="translate(711.37 107.77)">Iasi</text><text class="cls-2" transform="translate(586.66 70.24)">Nea<tspan class="cls-16" x="22.97" y="0">m</tspan><tspan x="34.59" y="0">t</tspan></text><line class="cls-1" x1="705.82" y1="125" x2="773.15" y2="177.56"/><text class="cls-2" transform="translate(746.17 145.2)">92</text><line class="cls-1" x1="593.67" y1="86.42" x2="686.59" y2="112.55"/><text class="cls-2" transform="translate(635.64 88.88)">87</text></svg>